<svg viewBox="0 0 196 57" fill="none" xmlns="http://www.w3.org/2000/svg">
<g filter="url(#filter0_f_344_2580)">
<path d="M43.5767 34.2654H33.8736V34.256H27.4397L31.9041 23.3389L35.1198 31.1982H42.126L36.0357 18H27.7726L18 39.1123H45.7775L43.5767 34.2654Z" fill="url(#paint0_linear_344_2580)"/>
<path d="M41.6955 22.8469H51.3986V22.8562H57.8312L53.3681 33.7734L50.1524 25.9141H43.1462L49.2365 39.1123H57.4996L67.2722 18H39.4947L41.6955 22.8469Z" fill="url(#paint1_linear_344_2580)"/>
<path d="M78.1265 32.677L77.2227 34.8965H72.1458L78.7857 20.5083H84.4174L91.0773 34.8965H86.0005L85.0752 32.677H78.1265ZM83.7382 29.3477L81.6002 24.1478L79.4836 29.3477H83.7382Z" fill="#D6EAFF"/>
<path d="M104.58 23.839H99.1332V34.8978H94.2622V23.839H88.815V20.5097H104.58V23.839Z" fill="#D6EAFF"/>
<path d="M106.224 20.5083H111.095V34.8965H106.224V20.5083ZM123.182 20.5083V34.8965H118.311V29.4707H114.118V25.9555H118.311V20.5083H123.182Z" fill="#D6EAFF"/>
<path d="M139.44 23.839H125.237V20.5097H139.44V23.839ZM138.844 29.1832H125.237V25.8526H138.844V29.1832ZM139.625 31.5873V34.8965H125.237V31.5873H139.625Z" fill="#D6EAFF"/>
<path d="M158.042 20.5083V34.8965H152.882L146.345 26.346V34.8965H141.474V20.5083H146.634L153.171 29.0803V20.5083H158.042Z" fill="#D6EAFF"/>
<path d="M168.544 24.1465L165.502 31.5873H168.935V34.8965H159.068L165.728 20.5083H171.36L178 34.8965H172.943L168.544 24.1465Z" fill="#D6EAFF"/>
</g>
<path d="M43.5767 34.2654H33.8736V34.256H27.4397L31.9041 23.3389L35.1198 31.1982H42.126L36.0357 18H27.7726L18 39.1123H45.7775L43.5767 34.2654Z" fill="url(#paint2_linear_344_2580)"/>
<path d="M41.6955 22.8469H51.3986V22.8562H57.8312L53.3681 33.7734L50.1524 25.9141H43.1462L49.2365 39.1123H57.4996L67.2722 18H39.4947L41.6955 22.8469Z" fill="url(#paint3_linear_344_2580)"/>
<path d="M78.1265 32.677L77.2227 34.8965H72.1458L78.7857 20.5083H84.4174L91.0773 34.8965H86.0005L85.0752 32.677H78.1265ZM83.7382 29.3477L81.6002 24.1478L79.4836 29.3477H83.7382Z" fill="#D6EAFF"/>
<path d="M104.58 23.839H99.1332V34.8978H94.2622V23.839H88.815V20.5097H104.58V23.839Z" fill="#D6EAFF"/>
<path d="M106.224 20.5083H111.095V34.8965H106.224V20.5083ZM123.182 20.5083V34.8965H118.311V29.4707H114.118V25.9555H118.311V20.5083H123.182Z" fill="#D6EAFF"/>
<path d="M139.44 23.839H125.237V20.5097H139.44V23.839ZM138.844 29.1832H125.237V25.8526H138.844V29.1832ZM139.625 31.5873V34.8965H125.237V31.5873H139.625Z" fill="#D6EAFF"/>
<path d="M158.042 20.5083V34.8965H152.882L146.345 26.346V34.8965H141.474V20.5083H146.634L153.171 29.0803V20.5083H158.042Z" fill="#D6EAFF"/>
<path d="M168.544 24.1465L165.502 31.5873H168.935V34.8965H159.068L165.728 20.5083H171.36L178 34.8965H172.943L168.544 24.1465Z" fill="#D6EAFF"/>
<defs>
<filter id="filter0_f_344_2580" x="0.9" y="0.9" width="194.2" height="55.3123" filterUnits="userSpaceOnUse" color-interpolation-filters="sRGB">
<feFlood flood-opacity="0" result="BackgroundImageFix"/>
<feBlend mode="normal" in="SourceGraphic" in2="BackgroundImageFix" result="shape"/>
<feGaussianBlur stdDeviation="8.55" result="effect1_foregroundBlur_344_2580"/>
</filter>
<linearGradient id="paint0_linear_344_2580" x1="98" y1="18" x2="98" y2="39.1123" gradientUnits="userSpaceOnUse">
<stop stop-color="#4093EB"/>
<stop offset="1" stop-color="#CDCEE7"/>
</linearGradient>
<linearGradient id="paint1_linear_344_2580" x1="98" y1="18" x2="98" y2="39.1123" gradientUnits="userSpaceOnUse">
<stop stop-color="#4093EB"/>
<stop offset="1" stop-color="#CDCEE7"/>
</linearGradient>
<linearGradient id="paint2_linear_344_2580" x1="98" y1="18" x2="98" y2="39.1123" gradientUnits="userSpaceOnUse">
<stop stop-color="#4093EB"/>
<stop offset="1" stop-color="#CDCEE7"/>
</linearGradient>
<linearGradient id="paint3_linear_344_2580" x1="98" y1="18" x2="98" y2="39.1123" gradientUnits="userSpaceOnUse">
<stop stop-color="#4093EB"/>
<stop offset="1" stop-color="#CDCEE7"/>
</linearGradient>
</defs>
</svg>